<?xml version="1.0" standalone="no"?>
<!DOCTYPE svg PUBLIC "-//W3C//DTD SVG 20010904//EN"
 "http://www.w3.org/TR/2001/REC-SVG-20010904/DTD/svg10.dtd">
<svg version="1.0" xmlns="http://www.w3.org/2000/svg"
 width="141.000000pt" height="100.000000pt" viewBox="0 0 141.000000 100.000000"
 preserveAspectRatio="xMidYMid meet">

<g transform="translate(0.000000,100.000000) scale(0.100000,-0.100000)"
fill="#000000" stroke="none">
<path d="M611 974 c-83 -22 -162 -76 -212 -145 l-18 -26 23 4 c33 7 66 -13 67
-40 0 -21 1 -21 9 -2 13 33 84 92 126 105 22 6 45 14 53 16 11 4 10 8 -4 23
-21 24 -12 59 18 71 34 14 -2 10 -62 -6z"/>
<path d="M728 975 c23 -17 30 -59 12 -70 -19 -12 -9 -21 37 -33 33 -9 61 -27
95 -61 39 -39 50 -46 59 -35 15 19 64 18 83 -2 25 -24 19 -2 -12 47 -51 79
-137 140 -217 154 -22 4 -49 9 -60 12 -18 4 -18 3 3 -12z"/>
<path d="M680 930 l0 -30 25 22 c27 23 25 38 -6 38 -14 0 -19 -7 -19 -30z m30
16 c0 -3 -4 -8 -10 -11 -5 -3 -10 -1 -10 4 0 6 5 11 10 11 6 0 10 -2 10 -4z"/>
<path d="M685 805 c0 -47 3 -85 8 -85 4 0 7 38 7 85 0 47 -3 85 -7 85 -5 0 -8
-38 -8 -85z"/>
<path d="M247 772 c-10 -10 -17 -26 -17 -36 0 -23 18 -56 31 -56 6 0 3 7 -5
16 -36 35 -9 92 39 80 36 -9 45 -54 15 -78 -12 -10 -18 -18 -13 -18 15 0 43
35 43 53 0 23 -35 57 -58 57 -11 0 -26 -8 -35 -18z"/>
<path d="M397 783 c-4 -3 -7 -13 -7 -21 0 -10 7 -12 27 -7 24 6 25 5 12 -11
-12 -15 -12 -17 1 -12 8 2 17 13 18 23 3 14 -1 17 -21 13 -18 -4 -24 -1 -20 9
6 14 1 17 -10 6z"/>
<path d="M1077 772 c-10 -10 -17 -23 -17 -28 0 -4 7 2 16 14 8 12 24 22 34 22
17 0 50 -34 50 -52 0 -5 -9 -17 -20 -28 -11 -11 -16 -20 -10 -20 5 0 17 11 25
24 14 20 14 29 4 48 -22 42 -55 50 -82 20z"/>
<path d="M952 758 c-17 -17 -15 -26 11 -39 20 -11 21 -11 9 4 -8 9 -11 21 -7
27 10 16 33 12 39 -7 4 -14 4 -14 3 2 -3 23 -36 32 -55 13z"/>
<path d="M353 733 c-4 -9 -7 -31 -7 -47 -1 -31 -1 -31 -53 -28 -64 5 -65 1
-28 -117 101 -320 482 -433 725 -214 86 77 138 174 155 285 l7 47 -48 3 c-48
3 -48 3 -59 47 -10 43 -11 44 -22 18 -14 -30 -45 -42 -72 -28 -18 10 -19 9
-10 -21 5 -18 9 -34 9 -36 0 -2 20 -2 45 0 25 2 45 0 45 -3 0 -4 -48 -10 -107
-14 -158 -9 -163 -12 -20 -14 148 -1 146 1 97 -98 -51 -103 -158 -181 -267
-197 l-43 -6 -2 107 -2 108 -5 -105 -6 -105 -35 3 c-69 7 -143 43 -195 96 -46
47 -105 147 -105 180 0 11 25 14 117 15 64 0 118 3 121 6 3 3 -28 5 -68 5
l-73 0 6 56 c4 43 3 54 -6 45 -17 -17 -45 -13 -67 9 -19 19 -21 19 -27 3z
m767 -114 c0 -13 -7 -19 -22 -19 -21 -1 -22 -2 -5 -14 23 -18 22 -23 -9 -23
-24 0 -25 2 -20 30 3 16 6 35 6 42 0 8 9 10 25 7 16 -3 25 -11 25 -23z m-799
14 c0 -5 2 -20 4 -35 2 -19 -2 -28 -13 -31 -12 -3 -10 -5 6 -6 13 0 21 -5 17
-10 -3 -5 -1 -12 4 -16 6 -3 1 -15 -11 -27 -16 -16 -22 -18 -29 -7 -6 9 -3 18
6 25 13 10 13 12 -6 17 -13 4 -19 12 -18 24 2 10 0 24 -5 31 -12 19 1 42 24
42 11 0 20 -3 21 -7z m102 0 c-13 -2 -35 -2 -50 0 -16 2 -5 4 22 4 28 0 40 -2
28 -4z m672 -100 c-3 -10 -9 -30 -12 -45 -5 -26 -14 -33 -38 -28 -5 1 -5 -4 2
-11 16 -16 5 -39 -18 -39 -10 0 -16 -5 -14 -12 3 -7 0 -20 -5 -28 -8 -13 -12
-13 -32 -1 -21 13 -22 13 -9 -3 11 -13 11 -20 3 -28 -16 -16 -52 -21 -52 -7 0
5 5 7 12 3 8 -5 9 -2 4 11 -9 24 59 96 83 87 14 -5 14 -4 2 11 -8 10 -9 17 -3
17 6 0 12 10 14 23 2 17 9 21 28 20 23 -3 23 -2 8 11 -26 19 -22 36 8 36 21 0
25 -4 19 -17z m-725 -58 c6 -19 16 -35 21 -35 6 0 8 -4 5 -9 -4 -5 0 -12 6
-14 10 -4 9 -8 -2 -16 -33 -23 -56 -1 -28 27 7 7 8 12 2 12 -6 0 -15 -5 -21
-11 -8 -8 -13 -8 -18 0 -3 6 1 14 9 17 27 10 18 25 -11 18 l-26 -7 19 26 c25
35 30 34 44 -8z m63 -105 c-8 -29 -22 -35 -38 -14 -12 17 -11 20 8 31 27 14
37 9 30 -17z m52 -20 c30 -18 32 -23 22 -44 -9 -19 -15 -22 -30 -15 -13 7 -16
16 -11 32 6 19 5 20 -10 8 -20 -17 -34 -7 -18 12 7 8 9 17 5 20 -13 14 11 6
42 -13z m428 -32 c8 -30 -13 -41 -37 -20 -18 16 -19 16 -14 -5 6 -23 -6 -32
-17 -13 -10 16 -25 12 -19 -5 4 -8 2 -15 -4 -15 -6 0 -17 -3 -25 -6 -11 -4
-13 1 -10 19 4 18 16 28 44 37 22 8 42 17 45 22 10 16 32 8 37 -14z m-253 -24
c41 -3 81 -7 88 -9 6 -3 12 0 12 5 0 6 5 10 10 10 6 0 8 -11 4 -27 -10 -40
-13 -41 -34 -13 -19 24 -19 24 -13 3 3 -13 1 -23 -4 -23 -6 0 -15 10 -21 23
l-11 22 0 -22 c-1 -25 -21 -32 -21 -8 0 8 -4 15 -9 15 -5 0 -11 -7 -15 -15 -7
-20 -33 -19 -45 3 -6 10 -11 12 -11 4 0 -24 -80 9 -80 33 0 4 7 5 15 1 8 -3
15 0 15 5 0 7 9 9 23 5 12 -4 56 -9 97 -12z"/>
<path d="M290 611 c0 -6 4 -12 8 -15 5 -3 9 1 9 9 0 8 -4 15 -9 15 -4 0 -8 -4
-8 -9z"/>
<path d="M1045 480 c3 -5 8 -10 11 -10 2 0 4 5 4 10 0 6 -5 10 -11 10 -5 0 -7
-4 -4 -10z"/>
<path d="M1060 711 c0 -10 29 -36 34 -30 1 2 -6 12 -16 22 -10 9 -18 13 -18 8z"/>
<path d="M680 685 c0 -18 -17 -20 -23 -2 -3 9 -7 9 -20 -2 -13 -10 -15 -17 -6
-27 9 -11 7 -14 -10 -14 -14 0 -21 -6 -21 -20 0 -11 7 -20 15 -20 9 0 14 -8
12 -22 -1 -18 3 -23 21 -22 12 0 22 -5 22 -13 0 -7 9 -13 20 -13 11 0 20 7 20
15 0 9 8 14 23 12 16 -1 22 3 21 16 -1 9 4 17 12 17 8 0 14 9 14 20 0 11 -4
20 -9 20 -5 0 -11 10 -13 23 -2 16 -9 21 -26 20 -14 -2 -22 3 -22 12 0 8 -7
15 -15 15 -8 0 -15 -7 -15 -15z m30 -50 c17 -20 5 -45 -20 -45 -11 0 -23 7
-26 15 -6 15 11 45 26 45 4 0 13 -7 20 -15z"/>
<path d="M100 509 c0 -3 11 -38 24 -77 28 -80 28 -79 -52 -58 -28 8 -52 11
-52 7 0 -12 103 -107 152 -140 62 -41 138 -73 160 -68 22 6 22 9 -2 -49 -25
-56 -26 -55 81 -84 197 -53 446 -45 656 21 l31 10 -25 62 c-14 34 -29 72 -34
84 l-8 23 -48 -19 c-158 -62 -357 -67 -516 -14 l-88 30 -14 -26 c-16 -30 -19
-23 -6 12 7 18 20 26 48 32 l38 7 -64 29 c-85 39 -179 107 -235 171 -25 29
-46 50 -46 47z m229 -204 c65 -32 71 -40 42 -48 -11 -3 -22 -17 -26 -36 -3
-17 -11 -34 -17 -37 -24 -15 -278 145 -278 176 0 5 25 2 56 -7 31 -8 58 -12
60 -10 3 2 -4 27 -15 56 l-21 51 69 -58 c38 -32 96 -71 130 -87z m101 -165 c0
-27 17 -33 23 -9 7 28 24 16 36 -24 l9 -32 1 33 c1 17 6 32 11 32 6 0 10 -4
10 -8 0 -4 15 -6 33 -5 34 4 72 -14 50 -24 -7 -2 -13 -13 -13 -24 0 -10 -5
-19 -11 -19 -6 0 -9 9 -6 20 3 10 -1 24 -8 30 -19 16 -29 -4 -15 -30 13 -25
-5 -28 -19 -2 -6 9 -11 11 -11 5 0 -15 -36 -17 -45 -3 -3 5 -12 7 -20 3 -8 -3
-15 0 -15 7 0 6 -4 9 -9 6 -19 -12 -41 6 -39 32 1 15 3 30 5 34 7 14 33 -4 33
-22z m586 -11 c1 -22 -2 -29 -12 -25 -8 3 -14 1 -14 -4 0 -6 -4 -10 -10 -10
-5 0 -10 15 -10 34 0 25 5 36 18 38 23 6 26 2 28 -33z m-56 -32 c0 -13 -5 -17
-15 -13 -8 3 -15 1 -15 -4 0 -6 -4 -10 -10 -10 -13 0 -13 22 1 57 10 27 11 27
25 9 8 -11 14 -28 14 -39z m-65 2 c0 -27 -4 -34 -20 -34 -24 0 -33 38 -14 61
19 23 34 11 34 -27z m-254 9 c0 -10 2 -10 6 0 10 24 23 11 23 -23 0 -35 -19
-51 -21 -17 -1 16 -2 16 -6 0 -8 -31 -23 -19 -23 17 0 32 19 52 21 23z m59
-23 c0 -19 -4 -35 -10 -35 -5 0 -10 16 -10 35 0 19 5 35 10 35 6 0 10 -16 10
-35z m56 24 c4 -8 9 -7 15 2 6 9 9 1 9 -23 0 -21 -4 -38 -10 -38 -5 0 -10 6
-11 13 0 9 -2 9 -6 0 -10 -25 -23 -12 -23 22 0 34 12 46 26 24z m78 -5 c10
-27 7 -46 -8 -41 -7 3 -19 0 -26 -6 -10 -10 -11 -7 -6 13 3 14 6 31 6 38 0 18
27 15 34 -4z"/>
<path d="M1267 467 c-48 -59 -131 -122 -223 -167 l-76 -39 36 -6 c30 -6 37
-13 52 -50 l16 -44 50 20 c27 10 74 35 105 55 56 36 163 130 163 144 0 4 -27
1 -60 -7 -34 -9 -63 -14 -65 -11 -2 2 7 35 21 72 13 38 23 70 21 73 -2 2 -20
-16 -40 -40z m-8 -68 c-11 -28 -18 -53 -16 -56 3 -2 30 2 61 10 31 9 56 12 56
8 0 -26 -236 -181 -276 -181 -2 0 -11 18 -20 40 -9 22 -22 40 -30 40 -8 0 -14
5 -14 10 0 6 6 10 14 10 20 0 155 91 196 132 19 19 38 36 42 37 3 0 -3 -22
-13 -50z"/>
</g>
</svg>
